<svg xmlns="http://www.w3.org/2000/svg" version="1.1" xmlns:xlink="http://www.w3.org/1999/xlink" xmlns:svgjs="http://svgjs.dev/svgjs" width="64" height="64"><svg width="64" height="64" viewBox="0 0 64 64" version="1.1" id="SvgjsSvg1013" inkscape:version="1.3 (0e150ed6c4, 2023-07-21)" sodipodi:docname="dash-icon.svg" xmlns:inkscape="http://www.inkscape.org/namespaces/inkscape" xmlns:sodipodi="http://sodipodi.sourceforge.net/DTD/sodipodi-0.dtd" xmlns="http://www.w3.org/2000/svg" xmlns:svg="http://www.w3.org/2000/svg">
  <sodipodi:namedview id="SvgjsSodipodi:namedview1012" pagecolor="#ffffff" bordercolor="#666666" borderopacity="1.0" inkscape:showpageshadow="2" inkscape:pageopacity="0.0" inkscape:pagecheckerboard="0" inkscape:deskcolor="#d1d1d1" inkscape:document-units="mm" inkscape:zoom="4.6741892" inkscape:cx="50.276099" inkscape:cy="27.91928" inkscape:window-width="1920" inkscape:window-height="1013" inkscape:window-x="-9" inkscape:window-y="-9" inkscape:window-maximized="1" inkscape:current-layer="layer1"></sodipodi:namedview>
  <defs id="SvgjsDefs1011"></defs>
  <g inkscape:label="Шар 1" inkscape:groupmode="layer" id="SvgjsG1010">
    <rect style="display:inline;fill:#0055d4;fill-opacity:1;stroke:none;stroke-width:0.935932;stroke-linecap:butt;stroke-linejoin:round;stroke-dasharray:none;stroke-dashoffset:17583.1;stroke-opacity:1;paint-order:stroke fill markers" id="SvgjsRect1009" width="5.2542019" height="22.98543" x="16.681787" y="23.990847" transform="matrix(1,0,-0.31133598,0.9502999,0,0)"></rect>
    <rect style="display:inline;fill:#ffdd55;fill-opacity:1;stroke:none;stroke-width:0.935932;stroke-linecap:butt;stroke-linejoin:round;stroke-dasharray:none;stroke-dashoffset:17583.1;stroke-opacity:1;paint-order:stroke fill markers" id="SvgjsRect1008" width="4.4968996" height="23.538216" x="25.91777" y="23.905804" transform="matrix(1,0,-0.31133598,0.9502999,0,0)" ry="0.6779688"></rect>
    <path style="display:inline;fill:none;fill-opacity:1;stroke:#ff2a2a;stroke-width:6.19295;stroke-linecap:butt;stroke-linejoin:round;stroke-dasharray:none;stroke-dashoffset:4652.2;stroke-opacity:1;paint-order:stroke fill markers" d="m 21.864664,45.651273 6.229217,-15.587995 c 1.894476,-5.073566 1.397036,-5.160545 10.968401,-5.149222 l 22.399178,-0.05756" id="SvgjsPath1007" sodipodi:nodetypes="cccc"></path>
    <path id="" style="display:inline;fill:#24211f;fill-opacity:1;stroke:none;stroke-width:0.804111;stroke-linecap:round;stroke-linejoin:round" d="m -4.1512531,-2.2930344 0.151279,68.4846714 H 70.905276 L 70.753997,-2.2930344 Z M 58.842897,22.605894 c 1.769849,-5.31e-4 2.815463,-0.04314 2.333019,1.708045 l -0.23911,0.943631 c -0.435661,1.422479 -0.691134,1.86825 -3.000048,1.874231 l -22.193607,0.164587 c -3.773681,-0.0069 -4.339351,0.346298 -5.601436,3.593248 l -5.200941,12.167075 c -0.650907,1.504595 -1.042668,1.507669 -1.804967,1.516941 h -1.098845 c -1.282394,-6.64e-4 -0.976095,-0.652149 -0.64006,-1.648839 L 26.861868,26.591408 C 28.319451,22.6331 28.259994,23.14299 35.349057,22.912666 Z M 10.578525,22.90375 h 1.775479 c 0.582167,0.01289 0.320448,0.497003 0.09875,1.26549 L 6.018329,43.960109 C 5.8484111,44.516481 5.6917776,44.570014 5.2086538,44.573652 H 3.6007329 c -0.473066,0 -0.4275655,-0.244691 -0.3191154,-0.649432 L 9.7329601,24.08146 c 0.2217373,-0.661828 0.3554829,-1.175695 0.8455649,-1.17771 z m 9.076958,0 h 1.775479 c 0.582167,0.01289 0.320449,0.497003 0.09875,1.26549 l -6.434426,19.790869 c -0.169918,0.556372 -0.326552,0.609905 -0.809676,0.613543 h -1.607921 c -0.473066,0 -0.427794,-0.244692 -0.319344,-0.649432 l 6.451572,-19.84276 c 0.221737,-0.661828 0.355482,-1.175695 0.845564,-1.17771 z" sodipodi:nodetypes="cccccccccccccccccccccccsccccccccscccc"></path>
  </g>
</svg><style>@media (prefers-color-scheme: light) { :root { filter: none; } }
@media (prefers-color-scheme: dark) { :root { filter: none; } }
</style></svg>